<svg xmlns="http://www.w3.org/2000/svg" xmlns:xlink="http://www.w3.org/1999/xlink" width="600" height="525" viewBox="0 0 600 525" role="img" aria-labelledby="title"><title id="title">1468 contributions, 261 active days, 40-day best streak within 2025-09-07 to 2026-09-08, and 16 public repositories. Updated 2026-09-08T05:58:14.189Z.</title>
<defs>
 <linearGradient id="neon"><stop stop-color="#31d9ff"/><stop offset=".5" stop-color="#8185ff"/><stop offset="1" stop-color="#d779ff"/></linearGradient>
 <radialGradient id="halo"><stop stop-color="#31d9ff" stop-opacity=".17"/><stop offset="1" stop-color="#31d9ff" stop-opacity="0"/></radialGradient>
 <radialGradient id="violet"><stop stop-color="#9860ff" stop-opacity=".21"/><stop offset="1" stop-color="#9860ff" stop-opacity="0"/></radialGradient>
 <pattern id="grid" width="28" height="28" patternUnits="userSpaceOnUse"><path d="M28 0H0V28" fill="none" stroke="#8caaff" stroke-opacity=".06"/></pattern>
 <filter id="glow" x="-100%" y="-100%" width="300%" height="300%"><feGaussianBlur stdDeviation="3"/><feMerge><feMergeNode/><feMergeNode in="SourceGraphic"/></feMerge></filter>
 <clipPath id="edge"><rect width="600" height="525" rx="18"/></clipPath>
</defs>
<style>
svg{font-family:'Segoe UI',Arial,sans-serif}.spin{transform-box:fill-box;transform-origin:center;animation:spin 22s linear infinite}.reverse{animation-direction:reverse}.float{animation:float 5s ease-in-out infinite}.pulse{animation:pulse 3s ease-in-out infinite}.flow{stroke-dasharray:7 20;animation:flow 5s linear infinite}.trace{stroke-dasharray:100 1500;animation:trace 9s linear infinite}.cursor{animation:blink 1.2s steps(2,end) infinite}
@keyframes spin{to{transform:rotate(360deg)}}@keyframes float{50%{transform:translateY(-9px)}}@keyframes pulse{50%{opacity:.4}}@keyframes flow{to{stroke-dashoffset:-108}}@keyframes trace{to{stroke-dashoffset:-1600}}@keyframes blink{50%{opacity:0}}
@media(prefers-reduced-motion:reduce){.spin,.float,.pulse,.flow,.trace,.cursor{animation:none}}
</style>
<g clip-path="url(#edge)"><rect x="0" y="0" width="600" height="525" rx="18" fill="#080e20" stroke="none" /><rect x="0" y="0" width="600" height="525" rx="0" fill="url(#grid)" stroke="none" /><ellipse cx="120" cy="183.75" rx="300" ry="472.5" fill="url(#halo)"/><ellipse cx="480" cy="315" rx="270" ry="525" fill="url(#violet)"/><text x="28" y="37" font-size="16" fill="#5ce0ff" font-family="Consolas,Menlo,monospace" letter-spacing="1.5">GITHUB / CONTRIBUTION SIGNAL</text><text x="28" y="64" font-size="16" fill="#90a8d0" font-family="Consolas,Menlo,monospace">2025-09-07 → 2026-09-08</text><rect x="28" y="84" width="266" height="90" rx="10" fill="#101b32" stroke="#2a3b5b" /><text x="45" y="127" font-size="33" fill="#50deff" font-weight="700">1,468</text><text x="45" y="152" font-size="15" fill="#a4b8d7" font-family="Consolas,Menlo,monospace">CONTRIBUTIONS</text><rect x="306" y="84" width="266" height="90" rx="10" fill="#101b32" stroke="#2a3b5b" /><text x="323" y="127" font-size="33" fill="#b195ff" font-weight="700">261</text><text x="323" y="152" font-size="15" fill="#a4b8d7" font-family="Consolas,Menlo,monospace">ACTIVE DAYS</text><rect x="28" y="186" width="266" height="90" rx="10" fill="#101b32" stroke="#2a3b5b" /><text x="45" y="229" font-size="33" fill="#73efbe" font-weight="700">40</text><text x="45" y="254" font-size="15" fill="#a4b8d7" font-family="Consolas,Menlo,monospace">BEST STREAK · DAYS</text><rect x="306" y="186" width="266" height="90" rx="10" fill="#101b32" stroke="#2a3b5b" /><text x="323" y="229" font-size="33" fill="#f59ccf" font-weight="700">16</text><text x="323" y="254" font-size="15" fill="#a4b8d7" font-family="Consolas,Menlo,monospace">PUBLIC REPOSITORIES</text><text x="28" y="324" font-size="11" fill="#829abb" font-family="Consolas,Menlo,monospace">LAST 27 WEEKS</text><g><title>2026-03-08: 1 contributions</title><rect x="28" y="345" width="15" height="15" rx="3" fill="#234c6b" stroke="none" /></g><g><title>2026-03-09: 1 contributions</title><rect x="28" y="365" width="15" height="15" rx="3" fill="#234c6b" stroke="none" /></g><g><title>2026-03-10: 1 contributions</title><rect x="28" y="385" width="15" height="15" rx="3" fill="#234c6b" stroke="none" /></g><g><title>2026-03-11: 2 contributions</title><rect x="28" y="405" width="15" height="15" rx="3" fill="#234c6b" stroke="none" /></g><g><title>2026-03-12: 1 contributions</title><rect x="28" y="425" width="15" height="15" rx="3" fill="#234c6b" stroke="none" /></g><g><title>2026-03-13: 0 contributions</title><rect x="28" y="445" width="15" height="15" rx="3" fill="#17263f" stroke="none" /></g><g><title>2026-03-14: 0 contributions</title><rect x="28" y="465" width="15" height="15" rx="3" fill="#17263f" stroke="none" /></g><g><title>2026-03-15: 0 contributions</title><rect x="48" y="345" width="15" height="15" rx="3" fill="#17263f" stroke="none" /></g><g><title>2026-03-16: 5 contributions</title><rect x="48" y="365" width="15" height="15" rx="3" fill="#234c6b" stroke="none" /></g><g><title>2026-03-17: 1 contributions</title><rect x="48" y="385" width="15" height="15" rx="3" fill="#234c6b" stroke="none" /></g><g><title>2026-03-18: 1 contributions</title><rect x="48" y="405" width="15" height="15" rx="3" fill="#234c6b" stroke="none" /></g><g><title>2026-03-19: 3 contributions</title><rect x="48" y="425" width="15" height="15" rx="3" fill="#234c6b" stroke="none" /></g><g><title>2026-03-20: 4 contributions</title><rect x="48" y="445" width="15" height="15" rx="3" fill="#234c6b" stroke="none" /></g><g><title>2026-03-21: 11 contributions</title><rect x="48" y="465" width="15" height="15" rx="3" fill="#234c6b" stroke="none" /></g><g><title>2026-03-22: 8 contributions</title><rect x="68" y="345" width="15" height="15" rx="3" fill="#234c6b" stroke="none" /></g><g><title>2026-03-23: 13 contributions</title><rect x="68" y="365" width="15" height="15" rx="3" fill="#234c6b" stroke="none" /></g><g><title>2026-03-24: 1 contributions</title><rect x="68" y="385" width="15" height="15" rx="3" fill="#234c6b" stroke="none" /></g><g><title>2026-03-25: 12 contributions</title><rect x="68" y="405" width="15" height="15" rx="3" fill="#234c6b" stroke="none" /></g><g><title>2026-03-26: 3 contributions</title><rect x="68" y="425" width="15" height="15" rx="3" fill="#234c6b" stroke="none" /></g><g><title>2026-03-27: 4 contributions</title><rect x="68" y="445" width="15" height="15" rx="3" fill="#234c6b" stroke="none" /></g><g><title>2026-03-28: 5 contributions</title><rect x="68" y="465" width="15" height="15" rx="3" fill="#234c6b" stroke="none" /></g><g><title>2026-03-29: 2 contributions</title><rect x="88" y="345" width="15" height="15" rx="3" fill="#234c6b" stroke="none" /></g><g><title>2026-03-30: 1 contributions</title><rect x="88" y="365" width="15" height="15" rx="3" fill="#234c6b" stroke="none" /></g><g><title>2026-03-31: 15 contributions</title><rect x="88" y="385" width="15" height="15" rx="3" fill="#234c6b" stroke="none" /></g><g><title>2026-04-01: 18 contributions</title><rect x="88" y="405" width="15" height="15" rx="3" fill="#337f9b" stroke="none" /></g><g><title>2026-04-02: 1 contributions</title><rect x="88" y="425" width="15" height="15" rx="3" fill="#234c6b" stroke="none" /></g><g><title>2026-04-03: 8 contributions</title><rect x="88" y="445" width="15" height="15" rx="3" fill="#234c6b" stroke="none" /></g><g><title>2026-04-04: 11 contributions</title><rect x="88" y="465" width="15" height="15" rx="3" fill="#234c6b" stroke="none" /></g><g><title>2026-04-05: 19 contributions</title><rect x="108" y="345" width="15" height="15" rx="3" fill="#337f9b" stroke="none" /></g><text x="108" y="339" font-size="9" fill="#8fa8cc" font-family="Consolas,Menlo,monospace">Apr</text><g><title>2026-04-06: 14 contributions</title><rect x="108" y="365" width="15" height="15" rx="3" fill="#234c6b" stroke="none" /></g><g><title>2026-04-07: 7 contributions</title><rect x="108" y="385" width="15" height="15" rx="3" fill="#234c6b" stroke="none" /></g><g><title>2026-04-08: 6 contributions</title><rect x="108" y="405" width="15" height="15" rx="3" fill="#234c6b" stroke="none" /></g><g><title>2026-04-09: 30 contributions</title><rect x="108" y="425" width="15" height="15" rx="3" fill="#337f9b" stroke="none" /></g><g><title>2026-04-10: 70 contributions</title><rect x="108" y="445" width="15" height="15" rx="3" fill="#89f3e0" stroke="none" /></g><g><title>2026-04-11: 48 contributions</title><rect x="108" y="465" width="15" height="15" rx="3" fill="#49b8d1" stroke="none" /></g><g><title>2026-04-12: 1 contributions</title><rect x="128" y="345" width="15" height="15" rx="3" fill="#234c6b" stroke="none" /></g><g><title>2026-04-13: 4 contributions</title><rect x="128" y="365" width="15" height="15" rx="3" fill="#234c6b" stroke="none" /></g><g><title>2026-04-14: 1 contributions</title><rect x="128" y="385" width="15" height="15" rx="3" fill="#234c6b" stroke="none" /></g><g><title>2026-04-15: 5 contributions</title><rect x="128" y="405" width="15" height="15" rx="3" fill="#234c6b" stroke="none" /></g><g><title>2026-04-16: 2 contributions</title><rect x="128" y="425" width="15" height="15" rx="3" fill="#234c6b" stroke="none" /></g><g><title>2026-04-17: 1 contributions</title><rect x="128" y="445" width="15" height="15" rx="3" fill="#234c6b" stroke="none" /></g><g><title>2026-04-18: 0 contributions</title><rect x="128" y="465" width="15" height="15" rx="3" fill="#17263f" stroke="none" /></g><g><title>2026-04-19: 1 contributions</title><rect x="148" y="345" width="15" height="15" rx="3" fill="#234c6b" stroke="none" /></g><g><title>2026-04-20: 1 contributions</title><rect x="148" y="365" width="15" height="15" rx="3" fill="#234c6b" stroke="none" /></g><g><title>2026-04-21: 0 contributions</title><rect x="148" y="385" width="15" height="15" rx="3" fill="#17263f" stroke="none" /></g><g><title>2026-04-22: 0 contributions</title><rect x="148" y="405" width="15" height="15" rx="3" fill="#17263f" stroke="none" /></g><g><title>2026-04-23: 1 contributions</title><rect x="148" y="425" width="15" height="15" rx="3" fill="#234c6b" stroke="none" /></g><g><title>2026-04-24: 0 contributions</title><rect x="148" y="445" width="15" height="15" rx="3" fill="#17263f" stroke="none" /></g><g><title>2026-04-25: 1 contributions</title><rect x="148" y="465" width="15" height="15" rx="3" fill="#234c6b" stroke="none" /></g><g><title>2026-04-26: 36 contributions</title><rect x="168" y="345" width="15" height="15" rx="3" fill="#49b8d1" stroke="none" /></g><g><title>2026-04-27: 85 contributions</title><rect x="168" y="365" width="15" height="15" rx="3" fill="#89f3e0" stroke="none" /></g><g><title>2026-04-28: 28 contributions</title><rect x="168" y="385" width="15" height="15" rx="3" fill="#337f9b" stroke="none" /></g><g><title>2026-04-29: 0 contributions</title><rect x="168" y="405" width="15" height="15" rx="3" fill="#17263f" stroke="none" /></g><g><title>2026-04-30: 1 contributions</title><rect x="168" y="425" width="15" height="15" rx="3" fill="#234c6b" stroke="none" /></g><g><title>2026-05-01: 1 contributions</title><rect x="168" y="445" width="15" height="15" rx="3" fill="#234c6b" stroke="none" /></g><g><title>2026-05-02: 1 contributions</title><rect x="168" y="465" width="15" height="15" rx="3" fill="#234c6b" stroke="none" /></g><g><title>2026-05-03: 1 contributions</title><rect x="188" y="345" width="15" height="15" rx="3" fill="#234c6b" stroke="none" /></g><text x="188" y="339" font-size="9" fill="#8fa8cc" font-family="Consolas,Menlo,monospace">May</text><g><title>2026-05-04: 1 contributions</title><rect x="188" y="365" width="15" height="15" rx="3" fill="#234c6b" stroke="none" /></g><g><title>2026-05-05: 0 contributions</title><rect x="188" y="385" width="15" height="15" rx="3" fill="#17263f" stroke="none" /></g><g><title>2026-05-06: 1 contributions</title><rect x="188" y="405" width="15" height="15" rx="3" fill="#234c6b" stroke="none" /></g><g><title>2026-05-07: 4 contributions</title><rect x="188" y="425" width="15" height="15" rx="3" fill="#234c6b" stroke="none" /></g><g><title>2026-05-08: 1 contributions</title><rect x="188" y="445" width="15" height="15" rx="3" fill="#234c6b" stroke="none" /></g><g><title>2026-05-09: 1 contributions</title><rect x="188" y="465" width="15" height="15" rx="3" fill="#234c6b" stroke="none" /></g><g><title>2026-05-10: 1 contributions</title><rect x="208" y="345" width="15" height="15" rx="3" fill="#234c6b" stroke="none" /></g><g><title>2026-05-11: 1 contributions</title><rect x="208" y="365" width="15" height="15" rx="3" fill="#234c6b" stroke="none" /></g><g><title>2026-05-12: 0 contributions</title><rect x="208" y="385" width="15" height="15" rx="3" fill="#17263f" stroke="none" /></g><g><title>2026-05-13: 0 contributions</title><rect x="208" y="405" width="15" height="15" rx="3" fill="#17263f" stroke="none" /></g><g><title>2026-05-14: 1 contributions</title><rect x="208" y="425" width="15" height="15" rx="3" fill="#234c6b" stroke="none" /></g><g><title>2026-05-15: 1 contributions</title><rect x="208" y="445" width="15" height="15" rx="3" fill="#234c6b" stroke="none" /></g><g><title>2026-05-16: 0 contributions</title><rect x="208" y="465" width="15" height="15" rx="3" fill="#17263f" stroke="none" /></g><g><title>2026-05-17: 0 contributions</title><rect x="228" y="345" width="15" height="15" rx="3" fill="#17263f" stroke="none" /></g><g><title>2026-05-18: 0 contributions</title><rect x="228" y="365" width="15" height="15" rx="3" fill="#17263f" stroke="none" /></g><g><title>2026-05-19: 0 contributions</title><rect x="228" y="385" width="15" height="15" rx="3" fill="#17263f" stroke="none" /></g><g><title>2026-05-20: 4 contributions</title><rect x="228" y="405" width="15" height="15" rx="3" fill="#234c6b" stroke="none" /></g><g><title>2026-05-21: 4 contributions</title><rect x="228" y="425" width="15" height="15" rx="3" fill="#234c6b" stroke="none" /></g><g><title>2026-05-22: 0 contributions</title><rect x="228" y="445" width="15" height="15" rx="3" fill="#17263f" stroke="none" /></g><g><title>2026-05-23: 0 contributions</title><rect x="228" y="465" width="15" height="15" rx="3" fill="#17263f" stroke="none" /></g><g><title>2026-05-24: 4 contributions</title><rect x="248" y="345" width="15" height="15" rx="3" fill="#234c6b" stroke="none" /></g><g><title>2026-05-25: 1 contributions</title><rect x="248" y="365" width="15" height="15" rx="3" fill="#234c6b" stroke="none" /></g><g><title>2026-05-26: 0 contributions</title><rect x="248" y="385" width="15" height="15" rx="3" fill="#17263f" stroke="none" /></g><g><title>2026-05-27: 0 contributions</title><rect x="248" y="405" width="15" height="15" rx="3" fill="#17263f" stroke="none" /></g><g><title>2026-05-28: 0 contributions</title><rect x="248" y="425" width="15" height="15" rx="3" fill="#17263f" stroke="none" /></g><g><title>2026-05-29: 0 contributions</title><rect x="248" y="445" width="15" height="15" rx="3" fill="#17263f" stroke="none" /></g><g><title>2026-05-30: 0 contributions</title><rect x="248" y="465" width="15" height="15" rx="3" fill="#17263f" stroke="none" /></g><g><title>2026-05-31: 0 contributions</title><rect x="268" y="345" width="15" height="15" rx="3" fill="#17263f" stroke="none" /></g><g><title>2026-06-01: 0 contributions</title><rect x="268" y="365" width="15" height="15" rx="3" fill="#17263f" stroke="none" /></g><g><title>2026-06-02: 0 contributions</title><rect x="268" y="385" width="15" height="15" rx="3" fill="#17263f" stroke="none" /></g><g><title>2026-06-03: 0 contributions</title><rect x="268" y="405" width="15" height="15" rx="3" fill="#17263f" stroke="none" /></g><g><title>2026-06-04: 2 contributions</title><rect x="268" y="425" width="15" height="15" rx="3" fill="#234c6b" stroke="none" /></g><g><title>2026-06-05: 4 contributions</title><rect x="268" y="445" width="15" height="15" rx="3" fill="#234c6b" stroke="none" /></g><g><title>2026-06-06: 1 contributions</title><rect x="268" y="465" width="15" height="15" rx="3" fill="#234c6b" stroke="none" /></g><g><title>2026-06-07: 1 contributions</title><rect x="288" y="345" width="15" height="15" rx="3" fill="#234c6b" stroke="none" /></g><text x="288" y="339" font-size="9" fill="#8fa8cc" font-family="Consolas,Menlo,monospace">Jun</text><g><title>2026-06-08: 11 contributions</title><rect x="288" y="365" width="15" height="15" rx="3" fill="#234c6b" stroke="none" /></g><g><title>2026-06-09: 8 contributions</title><rect x="288" y="385" width="15" height="15" rx="3" fill="#234c6b" stroke="none" /></g><g><title>2026-06-10: 2 contributions</title><rect x="288" y="405" width="15" height="15" rx="3" fill="#234c6b" stroke="none" /></g><g><title>2026-06-11: 1 contributions</title><rect x="288" y="425" width="15" height="15" rx="3" fill="#234c6b" stroke="none" /></g><g><title>2026-06-12: 0 contributions</title><rect x="288" y="445" width="15" height="15" rx="3" fill="#17263f" stroke="none" /></g><g><title>2026-06-13: 0 contributions</title><rect x="288" y="465" width="15" height="15" rx="3" fill="#17263f" stroke="none" /></g><g><title>2026-06-14: 1 contributions</title><rect x="308" y="345" width="15" height="15" rx="3" fill="#234c6b" stroke="none" /></g><g><title>2026-06-15: 1 contributions</title><rect x="308" y="365" width="15" height="15" rx="3" fill="#234c6b" stroke="none" /></g><g><title>2026-06-16: 1 contributions</title><rect x="308" y="385" width="15" height="15" rx="3" fill="#234c6b" stroke="none" /></g><g><title>2026-06-17: 0 contributions</title><rect x="308" y="405" width="15" height="15" rx="3" fill="#17263f" stroke="none" /></g><g><title>2026-06-18: 2 contributions</title><rect x="308" y="425" width="15" height="15" rx="3" fill="#234c6b" stroke="none" /></g><g><title>2026-06-19: 0 contributions</title><rect x="308" y="445" width="15" height="15" rx="3" fill="#17263f" stroke="none" /></g><g><title>2026-06-20: 0 contributions</title><rect x="308" y="465" width="15" height="15" rx="3" fill="#17263f" stroke="none" /></g><g><title>2026-06-21: 0 contributions</title><rect x="328" y="345" width="15" height="15" rx="3" fill="#17263f" stroke="none" /></g><g><title>2026-06-22: 0 contributions</title><rect x="328" y="365" width="15" height="15" rx="3" fill="#17263f" stroke="none" /></g><g><title>2026-06-23: 2 contributions</title><rect x="328" y="385" width="15" height="15" rx="3" fill="#234c6b" stroke="none" /></g><g><title>2026-06-24: 2 contributions</title><rect x="328" y="405" width="15" height="15" rx="3" fill="#234c6b" stroke="none" /></g><g><title>2026-06-25: 19 contributions</title><rect x="328" y="425" width="15" height="15" rx="3" fill="#337f9b" stroke="none" /></g><g><title>2026-06-26: 0 contributions</title><rect x="328" y="445" width="15" height="15" rx="3" fill="#17263f" stroke="none" /></g><g><title>2026-06-27: 12 contributions</title><rect x="328" y="465" width="15" height="15" rx="3" fill="#234c6b" stroke="none" /></g><g><title>2026-06-28: 0 contributions</title><rect x="348" y="345" width="15" height="15" rx="3" fill="#17263f" stroke="none" /></g><g><title>2026-06-29: 0 contributions</title><rect x="348" y="365" width="15" height="15" rx="3" fill="#17263f" stroke="none" /></g><g><title>2026-06-30: 2 contributions</title><rect x="348" y="385" width="15" height="15" rx="3" fill="#234c6b" stroke="none" /></g><g><title>2026-07-01: 1 contributions</title><rect x="348" y="405" width="15" height="15" rx="3" fill="#234c6b" stroke="none" /></g><g><title>2026-07-02: 4 contributions</title><rect x="348" y="425" width="15" height="15" rx="3" fill="#234c6b" stroke="none" /></g><g><title>2026-07-03: 12 contributions</title><rect x="348" y="445" width="15" height="15" rx="3" fill="#234c6b" stroke="none" /></g><g><title>2026-07-04: 0 contributions</title><rect x="348" y="465" width="15" height="15" rx="3" fill="#17263f" stroke="none" /></g><g><title>2026-07-05: 0 contributions</title><rect x="368" y="345" width="15" height="15" rx="3" fill="#17263f" stroke="none" /></g><text x="368" y="339" font-size="9" fill="#8fa8cc" font-family="Consolas,Menlo,monospace">Jul</text><g><title>2026-07-06: 0 contributions</title><rect x="368" y="365" width="15" height="15" rx="3" fill="#17263f" stroke="none" /></g><g><title>2026-07-07: 0 contributions</title><rect x="368" y="385" width="15" height="15" rx="3" fill="#17263f" stroke="none" /></g><g><title>2026-07-08: 0 contributions</title><rect x="368" y="405" width="15" height="15" rx="3" fill="#17263f" stroke="none" /></g><g><title>2026-07-09: 0 contributions</title><rect x="368" y="425" width="15" height="15" rx="3" fill="#17263f" stroke="none" /></g><g><title>2026-07-10: 0 contributions</title><rect x="368" y="445" width="15" height="15" rx="3" fill="#17263f" stroke="none" /></g><g><title>2026-07-11: 0 contributions</title><rect x="368" y="465" width="15" height="15" rx="3" fill="#17263f" stroke="none" /></g><g><title>2026-07-12: 7 contributions</title><rect x="388" y="345" width="15" height="15" rx="3" fill="#234c6b" stroke="none" /></g><g><title>2026-07-13: 0 contributions</title><rect x="388" y="365" width="15" height="15" rx="3" fill="#17263f" stroke="none" /></g><g><title>2026-07-14: 0 contributions</title><rect x="388" y="385" width="15" height="15" rx="3" fill="#17263f" stroke="none" /></g><g><title>2026-07-15: 0 contributions</title><rect x="388" y="405" width="15" height="15" rx="3" fill="#17263f" stroke="none" /></g><g><title>2026-07-16: 2 contributions</title><rect x="388" y="425" width="15" height="15" rx="3" fill="#234c6b" stroke="none" /></g><g><title>2026-07-17: 0 contributions</title><rect x="388" y="445" width="15" height="15" rx="3" fill="#17263f" stroke="none" /></g><g><title>2026-07-18: 0 contributions</title><rect x="388" y="465" width="15" height="15" rx="3" fill="#17263f" stroke="none" /></g><g><title>2026-07-19: 0 contributions</title><rect x="408" y="345" width="15" height="15" rx="3" fill="#17263f" stroke="none" /></g><g><title>2026-07-20: 0 contributions</title><rect x="408" y="365" width="15" height="15" rx="3" fill="#17263f" stroke="none" /></g><g><title>2026-07-21: 0 contributions</title><rect x="408" y="385" width="15" height="15" rx="3" fill="#17263f" stroke="none" /></g><g><title>2026-07-22: 0 contributions</title><rect x="408" y="405" width="15" height="15" rx="3" fill="#17263f" stroke="none" /></g><g><title>2026-07-23: 7 contributions</title><rect x="408" y="425" width="15" height="15" rx="3" fill="#234c6b" stroke="none" /></g><g><title>2026-07-24: 5 contributions</title><rect x="408" y="445" width="15" height="15" rx="3" fill="#234c6b" stroke="none" /></g><g><title>2026-07-25: 5 contributions</title><rect x="408" y="465" width="15" height="15" rx="3" fill="#234c6b" stroke="none" /></g><g><title>2026-07-26: 4 contributions</title><rect x="428" y="345" width="15" height="15" rx="3" fill="#234c6b" stroke="none" /></g><g><title>2026-07-27: 9 contributions</title><rect x="428" y="365" width="15" height="15" rx="3" fill="#234c6b" stroke="none" /></g><g><title>2026-07-28: 0 contributions</title><rect x="428" y="385" width="15" height="15" rx="3" fill="#17263f" stroke="none" /></g><g><title>2026-07-29: 6 contributions</title><rect x="428" y="405" width="15" height="15" rx="3" fill="#234c6b" stroke="none" /></g><g><title>2026-07-30: 4 contributions</title><rect x="428" y="425" width="15" height="15" rx="3" fill="#234c6b" stroke="none" /></g><g><title>2026-07-31: 3 contributions</title><rect x="428" y="445" width="15" height="15" rx="3" fill="#234c6b" stroke="none" /></g><g><title>2026-08-01: 5 contributions</title><rect x="428" y="465" width="15" height="15" rx="3" fill="#234c6b" stroke="none" /></g><g><title>2026-08-02: 0 contributions</title><rect x="448" y="345" width="15" height="15" rx="3" fill="#17263f" stroke="none" /></g><text x="448" y="339" font-size="9" fill="#8fa8cc" font-family="Consolas,Menlo,monospace">Aug</text><g><title>2026-08-03: 3 contributions</title><rect x="448" y="365" width="15" height="15" rx="3" fill="#234c6b" stroke="none" /></g><g><title>2026-08-04: 9 contributions</title><rect x="448" y="385" width="15" height="15" rx="3" fill="#234c6b" stroke="none" /></g><g><title>2026-08-05: 2 contributions</title><rect x="448" y="405" width="15" height="15" rx="3" fill="#234c6b" stroke="none" /></g><g><title>2026-08-06: 3 contributions</title><rect x="448" y="425" width="15" height="15" rx="3" fill="#234c6b" stroke="none" /></g><g><title>2026-08-07: 11 contributions</title><rect x="448" y="445" width="15" height="15" rx="3" fill="#234c6b" stroke="none" /></g><g><title>2026-08-08: 10 contributions</title><rect x="448" y="465" width="15" height="15" rx="3" fill="#234c6b" stroke="none" /></g><g><title>2026-08-09: 4 contributions</title><rect x="468" y="345" width="15" height="15" rx="3" fill="#234c6b" stroke="none" /></g><g><title>2026-08-10: 14 contributions</title><rect x="468" y="365" width="15" height="15" rx="3" fill="#234c6b" stroke="none" /></g><g><title>2026-08-11: 11 contributions</title><rect x="468" y="385" width="15" height="15" rx="3" fill="#234c6b" stroke="none" /></g><g><title>2026-08-12: 6 contributions</title><rect x="468" y="405" width="15" height="15" rx="3" fill="#234c6b" stroke="none" /></g><g><title>2026-08-13: 65 contributions</title><rect x="468" y="425" width="15" height="15" rx="3" fill="#89f3e0" stroke="none" /></g><g><title>2026-08-14: 12 contributions</title><rect x="468" y="445" width="15" height="15" rx="3" fill="#234c6b" stroke="none" /></g><g><title>2026-08-15: 2 contributions</title><rect x="468" y="465" width="15" height="15" rx="3" fill="#234c6b" stroke="none" /></g><g><title>2026-08-16: 22 contributions</title><rect x="488" y="345" width="15" height="15" rx="3" fill="#337f9b" stroke="none" /></g><g><title>2026-08-17: 13 contributions</title><rect x="488" y="365" width="15" height="15" rx="3" fill="#234c6b" stroke="none" /></g><g><title>2026-08-18: 2 contributions</title><rect x="488" y="385" width="15" height="15" rx="3" fill="#234c6b" stroke="none" /></g><g><title>2026-08-19: 5 contributions</title><rect x="488" y="405" width="15" height="15" rx="3" fill="#234c6b" stroke="none" /></g><g><title>2026-08-20: 36 contributions</title><rect x="488" y="425" width="15" height="15" rx="3" fill="#49b8d1" stroke="none" /></g><g><title>2026-08-21: 8 contributions</title><rect x="488" y="445" width="15" height="15" rx="3" fill="#234c6b" stroke="none" /></g><g><title>2026-08-22: 6 contributions</title><rect x="488" y="465" width="15" height="15" rx="3" fill="#234c6b" stroke="none" /></g><g><title>2026-08-23: 18 contributions</title><rect x="508" y="345" width="15" height="15" rx="3" fill="#337f9b" stroke="none" /></g><g><title>2026-08-24: 33 contributions</title><rect x="508" y="365" width="15" height="15" rx="3" fill="#49b8d1" stroke="none" /></g><g><title>2026-08-25: 47 contributions</title><rect x="508" y="385" width="15" height="15" rx="3" fill="#49b8d1" stroke="none" /></g><g><title>2026-08-26: 45 contributions</title><rect x="508" y="405" width="15" height="15" rx="3" fill="#49b8d1" stroke="none" /></g><g><title>2026-08-27: 0 contributions</title><rect x="508" y="425" width="15" height="15" rx="3" fill="#17263f" stroke="none" /></g><g><title>2026-08-28: 37 contributions</title><rect x="508" y="445" width="15" height="15" rx="3" fill="#49b8d1" stroke="none" /></g><g><title>2026-08-29: 0 contributions</title><rect x="508" y="465" width="15" height="15" rx="3" fill="#17263f" stroke="none" /></g><g><title>2026-08-30: 1 contributions</title><rect x="528" y="345" width="15" height="15" rx="3" fill="#234c6b" stroke="none" /></g><g><title>2026-08-31: 0 contributions</title><rect x="528" y="365" width="15" height="15" rx="3" fill="#17263f" stroke="none" /></g><g><title>2026-09-01: 5 contributions</title><rect x="528" y="385" width="15" height="15" rx="3" fill="#234c6b" stroke="none" /></g><g><title>2026-09-02: 30 contributions</title><rect x="528" y="405" width="15" height="15" rx="3" fill="#337f9b" stroke="none" /></g><g><title>2026-09-03: 8 contributions</title><rect x="528" y="425" width="15" height="15" rx="3" fill="#234c6b" stroke="none" /></g><g><title>2026-09-04: 3 contributions</title><rect x="528" y="445" width="15" height="15" rx="3" fill="#234c6b" stroke="none" /></g><g><title>2026-09-05: 0 contributions</title><rect x="528" y="465" width="15" height="15" rx="3" fill="#17263f" stroke="none" /></g><g><title>2026-09-06: 0 contributions</title><rect x="548" y="345" width="15" height="15" rx="3" fill="#17263f" stroke="none" /></g><text x="548" y="339" font-size="9" fill="#8fa8cc" font-family="Consolas,Menlo,monospace">Sep</text><g><title>2026-09-07: 8 contributions</title><rect x="548" y="365" width="15" height="15" rx="3" fill="#234c6b" stroke="none" /></g><g><title>2026-09-08: 0 contributions</title><rect x="548" y="385" width="15" height="15" rx="3" fill="#17263f" stroke="none" /></g><text x="28" y="507" font-size="11" fill="#829bbf" font-family="Consolas,Menlo,monospace">PUBLIC GITHUB DATA · UPDATED 2026-09-08 UTC</text></g>
<rect x="0.7" y="0.7" width="598.6" height="523.6" rx="18" fill="none" stroke="#293555" /><path d="M1 66V18Q1 1 18 1H192M413.99999999999994 524H582Q599 524 599 507V460" fill="none" stroke="url(#neon)" stroke-width="1.5"/></svg>
